<svg version="1.0" xmlns="http://www.w3.org/2000/svg"
width="1280.000000pt" height="640.000000pt" viewBox="0 0 1280.000000 640.000000"
preserveAspectRatio="xMidYMid meet">
<metadata>
Created by potrace 1.15, written by Peter Selinger 2001-2017
</metadata>
<g transform="translate(0.000000,640.000000) scale(0.100000,-0.100000)"
fill="#3498db" stroke="none"> <!-- Changed color here -->
<path d="M1120 5438 c-157 -33 -277 -84 -416 -176 -267 -177 -497 -466 -650
-818 -38 -88 -48 -123 -52 -181 l-4 -73 695 0 c413 0 737 -4 798 -11 264 -26
478 -122 658 -294 528 -504 326 -1335 -385 -1589 -170 -61 -150 -59 -991 -63
l-773 -4 0 -65 c0 -52 8 -84 41 -167 181 -459 535 -840 910 -981 158 -59 155
-59 899 -63 447 -3 724 -1 797 6 284 28 520 148 753 381 63 63 145 158 182
210 66 94 173 290 218 403 l24 57 2428 0 2428 0 17 -27 c70 -111 213 -281 324
-388 565 -541 1359 -744 2119 -544 620 164 1151 600 1430 1174 74 153 123 285
159 433 53 211 65 317 65 552 0 236 -12 342 -66 555 -189 756 -787 1374 -1540
1591 -389 112 -806 116 -1198 13 -362 -96 -696 -284 -973 -548 -112 -106 -267
-294 -322 -389 l-19 -32 -2429 2 -2428 3 -38 91 c-177 430 -518 776 -887 900
-161 54 -166 54 -977 53 -440 -1 -771 -5 -797 -11z m9984 -1355 c13 -21 132
-226 265 -455 l240 -418 -258 -447 -259 -448 -528 0 -528 0 -259 448 -258 447
262 455 262 455 519 0 518 0 24 -37z"/>
</g>
</svg>